# xmcd
#
# Track frame offsets:
#	150
#	16004
#	29617
#	44545
#	57934
#	72073
#	85294
#	98598
#	115475
#	130541
#	145511
#	159236
#	172640
#	187709
#	199990
#	213650
#	226536
#	240084
#	255413
#	268076
#
# Disc length: 3781 seconds
#
# Revision: 0
# Processed by: cddbd v1.5.2PL0 Copyright (c) Steve Scherf et al.
# Submitted via: audiograbber 1.83.01
#
DISCID=f40ec314
DTITLE=Various Artist - The Ladies in Blues - CD1
DYEAR=1900
DGENRE=
TTITLE0=Bessie Smith: Haunted House Blues
TTITLE1=Ida Cox: Confidential Blues
TTITLE2=Booze And Blues: Ma Rainey
TTITLE3=Hattie McDaniel: I Thought I'd Do It
TTITLE4=Vivtoria Spivey: Dirty Tee Bee Blues
TTITLE5=Memphis Minnie: Frisco Town
TTITLE6=Ida Cox: Last Time Blues
TTITLE7=Bessie Smith: Nashville Women's Blues
TTITLE8=Ma Rainey: Jealuos Haerted Blues
TTITLE9=Memphis Minnie: Bumble Bee
TTITLE10=Ida Cox: Worried Any How Blues
TTITLE11=Ethel Waters: Birmingham Bertha
TTITLE12=Ma Rainey: Black Eye Blues
TTITLE13=Memphis Minnie: I'm Talking About You
TTITLE14=Bessie Smith: The House Blues
TTITLE15=Ida Cox: I've Got The Blues For Rampart Street
TTITLE16=Ma Rainey: Night Time Blues
TTITLE17=Alice Moore: My Man Blues
TTITLE18=Lucille Bogan: Reckless Woman
TTITLE19=Mildred Bailey: Down Hearted Blues
EXTD=
EXTT0=
EXTT1=
EXTT2=
EXTT3=
EXTT4=
EXTT5=
EXTT6=
EXTT7=
EXTT8=
EXTT9=
EXTT10=
EXTT11=
EXTT12=
EXTT13=
EXTT14=
EXTT15=
EXTT16=
EXTT17=
EXTT18=
EXTT19=
PLAYORDER=
